<svg version="1.1" id="Layer_1" xmlns="http://www.w3.org/2000/svg" xmlns:xlink="http://www.w3.org/1999/xlink" x="0px" y="0px"
	 width="100" height="100" viewBox="0 0 100 100" enable-background="new 0 0 100 100" xml:space="preserve">
<path fill="none" opacity="1.000000" stroke="none" 
	d="
M57.000000,101.000000 
	C38.000004,101.000000 19.500006,101.000000 1.000007,101.000000 
	C1.000005,67.666679 1.000005,34.333351 1.000003,1.000021 
	C34.333317,1.000014 67.666634,1.000014 100.999969,1.000007 
	C100.999977,34.333313 100.999977,67.666626 100.999985,100.999969 
	C86.500000,101.000000 72.000000,101.000000 57.000000,101.000000 
M84.695320,90.978554 
	C87.733315,88.215897 90.839119,85.522789 93.777336,82.657814 
	C95.026627,81.439659 96.778053,79.897484 96.839287,78.441101 
	C97.150627,71.036484 96.982849,63.611710 96.982849,56.235947 
	C89.667946,56.235947 83.066368,56.235947 75.517204,56.235947 
	C75.517204,62.261829 75.517204,68.086861 75.517204,73.911888 
	C75.202385,73.867935 74.887566,73.823982 74.572746,73.780022 
	C74.572746,58.585915 74.572746,43.391804 74.572746,28.197693 
	C74.994255,28.190060 75.415771,28.182426 75.837280,28.174793 
	C75.837280,32.986961 75.837280,37.799129 75.837280,42.686409 
	C83.251404,42.686409 89.970772,42.686409 96.997581,42.686409 
	C96.997581,36.406708 97.014801,30.436523 96.976807,24.466688 
	C96.971786,23.679390 96.962929,22.589735 96.486176,22.153952 
	C90.862190,17.013275 86.956871,10.594173 77.118408,10.508854 
	C66.515923,10.416910 58.963703,13.441233 53.002720,21.600769 
	C52.021439,22.943974 51.098621,24.729919 51.085636,26.318909 
	C50.948174,43.138687 50.986191,59.960056 51.035385,76.780815 
	C51.038429,77.820534 51.219860,79.152061 51.859913,79.853889 
	C62.041576,91.018440 62.061790,91.000122 77.836288,90.999847 
	C79.834808,90.999817 81.833336,90.997765 84.695320,90.978554 
M45.598831,20.074594 
	C40.088978,12.349195 32.754421,9.628246 23.305513,10.855275 
	C17.334677,11.630644 11.181255,11.000000 5.237316,11.000000 
	C5.237316,38.050083 5.237316,64.291901 5.237316,90.719254 
	C11.858065,90.719254 18.239109,90.719254 25.122974,90.719254 
	C25.122974,82.055359 25.122974,73.659630 25.122974,65.253738 
	C30.240057,64.395271 34.812794,65.681900 39.334507,61.642853 
	C46.920155,54.866928 50.694111,47.582848 49.080940,37.451710 
	C48.564102,34.205830 49.360722,30.754963 48.879601,27.497854 
	C48.529049,25.124643 47.067921,22.915480 45.598831,20.074594 
z"/>
<path fill="rgba(255, 255, 255, 1)" opacity="1.000000" stroke="none" 
	d="
M84.263588,90.987602 
	C81.833336,90.997765 79.834808,90.999817 77.836288,90.999847 
	C62.061790,91.000122 62.041576,91.018440 51.859913,79.853889 
	C51.219860,79.152061 51.038429,77.820534 51.035385,76.780815 
	C50.986191,59.960056 50.948174,43.138687 51.085636,26.318909 
	C51.098621,24.729919 52.021439,22.943974 53.002720,21.600769 
	C58.963703,13.441233 66.515923,10.416910 77.118408,10.508854 
	C86.956871,10.594173 90.862190,17.013275 96.486176,22.153952 
	C96.962929,22.589735 96.971786,23.679390 96.976807,24.466688 
	C97.014801,30.436523 96.997581,36.406708 96.997581,42.686409 
	C89.970772,42.686409 83.251404,42.686409 75.837280,42.686409 
	C75.837280,37.799129 75.837280,32.986961 75.837280,28.174793 
	C75.415771,28.182426 74.994255,28.190060 74.572746,28.197693 
	C74.572746,43.391804 74.572746,58.585915 74.572746,73.780022 
	C74.887566,73.823982 75.202385,73.867935 75.517204,73.911888 
	C75.517204,68.086861 75.517204,62.261829 75.517204,56.235947 
	C83.066368,56.235947 89.667946,56.235947 96.982849,56.235947 
	C96.982849,63.611710 97.150627,71.036484 96.839287,78.441101 
	C96.778053,79.897484 95.026627,81.439659 93.777336,82.657814 
	C90.839119,85.522789 87.733315,88.215897 84.263588,90.987602 
z"/>
<path fill="rgba(255, 255, 255, 1)" opacity="1.000000" stroke="none" 
	d="
M45.850365,20.353889 
	C47.067921,22.915480 48.529049,25.124643 48.879601,27.497854 
	C49.360722,30.754963 48.564102,34.205830 49.080940,37.451710 
	C50.694111,47.582848 46.920155,54.866928 39.334507,61.642853 
	C34.812794,65.681900 30.240057,64.395271 25.122974,65.253738 
	C25.122974,73.659630 25.122974,82.055359 25.122974,90.719254 
	C18.239109,90.719254 11.858065,90.719254 5.237316,90.719254 
	C5.237316,64.291901 5.237316,38.050083 5.237316,11.000000 
	C11.181255,11.000000 17.334677,11.630644 23.305513,10.855275 
	C32.754421,9.628246 40.088978,12.349195 45.850365,20.353889 
M27.000000,34.728577 
	C27.000000,32.551441 27.000000,30.374308 27.000000,28.234213 
	C25.203907,29.218485 23.777647,41.740257 25.120382,46.726547 
	C25.276581,47.306599 26.482904,47.603874 27.000000,47.911751 
	C27.000000,43.471672 27.000000,39.565002 27.000000,34.728577 
z"/>
<path fill="none" opacity="1.000000" stroke="none" 
	d="
M27.000000,35.193455 
	C27.000000,39.565002 27.000000,43.471672 27.000000,47.911751 
	C26.482904,47.603874 25.276581,47.306599 25.120382,46.726547 
	C23.777647,41.740257 25.203907,29.218485 27.000000,28.234213 
	C27.000000,30.374308 27.000000,32.551441 27.000000,35.193455 
z"/>
</svg>